<svg width="77" height="435" viewBox="0 0 77 435" fill="none" xmlns="http://www.w3.org/2000/svg">
<g opacity="0.45">
<path d="M31.84 38.48V64.16C31.84 72.08 34.56 74.08 43.92 74.08C45.92 74.08 58.64 74.08 60.8 74.08C68.64 74.08 70.72 71.44 71.68 61.52C69.68 61.04 66.8 60 65.2 58.8C64.8 66.24 64.08 67.52 60.24 67.52C57.44 67.52 46.64 67.52 44.48 67.52C39.6 67.52 38.88 66.96 38.88 64.08V38.48H31.84ZM4.55998 6.64C9.43998 8.88 15.44 12.64 18.24 15.44L22.64 9.2C19.68 6.48 13.6 3.04 8.87998 1.04L4.55998 6.64ZM0.47998 28.24C5.35998 30.32 11.36 33.84 14.16 36.48L18.48 30.24C15.52 27.6 9.43998 24.32 4.63998 22.48L0.47998 28.24ZM2.55998 69.2L9.27998 73.76C13.36 66.16 17.92 56.48 21.52 48L15.52 43.44C11.6 52.72 6.31998 63.04 2.55998 69.2ZM35.2 38.48V44.24H55.12V51.2H35.2V57.04H61.92V38.48H35.2ZM22.96 9.52V16.32H73.04V9.52H22.96ZM19.68 24.24V31.12H75.36V24.24H19.68ZM33.36 0.559998V28.96H40.72V0.559998H33.36ZM54.32 0.559998V29.12H61.76V0.559998H54.32ZM34.32 28.56C31.04 36 24.56 43.6 18.16 47.6C19.84 48.88 22.24 51.52 23.36 53.28C30.24 48.4 37.04 39.6 40.8 30.72L34.32 28.56ZM60.72 28.32L54.4 30.48C58 39.12 64.48 47.76 71.44 52.32C72.56 50.48 75.04 47.76 76.72 46.4C70.16 42.8 63.92 35.52 60.72 28.32Z" fill="#898989"/>
<path d="M3.11998 142.56V148.08H40V142.56H3.11998ZM1.11998 104.16V109.84H41.12V104.16H1.11998ZM17.84 97.6V155.84H24.72V97.6H17.84ZM0.879981 155.52L1.83998 162C12.16 160.96 26.64 159.44 40.24 157.84L40.16 152C25.84 153.44 10.72 154.72 0.879981 155.52ZM9.51998 128.56H33.36V133.44H9.51998V128.56ZM9.51998 119.04H33.36V123.84H9.51998V119.04ZM3.35998 114.08V138.4H39.68V114.08H3.35998ZM36.4 91.12C27.84 93.04 13.6 94.48 1.67998 95.04C2.39998 96.56 3.11998 98.96 3.43998 100.56C15.44 100.24 30.16 98.96 39.92 96.88L36.4 91.12ZM40.72 108.96V115.92H69.12V108.96H40.72ZM66.08 108.96V110.64C65.36 142.4 64.56 153.84 62.64 156.32C61.92 157.36 61.12 157.6 59.84 157.6C58.32 157.6 54.96 157.52 51.28 157.2C52.48 159.28 53.28 162.4 53.44 164.48C57.2 164.64 60.96 164.64 63.36 164.32C65.84 163.92 67.6 163.2 69.12 160.8C71.76 157.36 72.48 145.92 73.36 112.48C73.36 111.6 73.36 108.96 73.36 108.96H66.08ZM49.52 91.68C49.44 122.64 50.08 146.72 32.4 159.68C34.16 160.96 36.72 163.52 37.84 165.28C56.64 150.88 56.72 124.48 56.8 91.68H49.52Z" fill="#898989"/>
<path d="M38 208.4C32.88 208.4 28.72 212.56 28.72 217.6C28.72 222.72 32.88 226.88 38 226.88C43.04 226.88 47.2 222.72 47.2 217.6C47.2 212.56 43.04 208.4 38 208.4Z" fill="#898989"/>
<path d="M30.96 280.56V286.96H43.2V280.56H30.96ZM38.08 323.52V329.04H68V323.52H38.08ZM37.52 335.76V342H67.84V335.76H37.52ZM34.64 311.12V344.72H41.6V317.28H63.76V344.4H71.12V311.12H34.64ZM49.36 270.56V302.16C49.36 302.96 49.12 303.28 48.24 303.28C47.36 303.28 44.64 303.28 41.68 303.2C42.56 305.12 43.36 307.76 43.68 309.6C48.16 309.6 51.36 309.52 53.52 308.48C55.76 307.44 56.24 305.68 56.24 302.32V270.56H49.36ZM41.12 280.56V281.6C39.52 291.12 34.96 299.28 28.56 302.96C29.92 304.16 31.76 306.48 32.72 308C40.48 303.12 45.76 294.32 47.76 281.52L43.6 280.4L42.32 280.56H41.12ZM68.48 276.72C65.68 280.24 60.8 285.2 57.2 288.08L61.68 291.92C65.44 289.36 70.16 285.28 74.4 281.52L68.48 276.72ZM55.6 272.88L51.2 273.76C54.32 288.72 60.64 301.92 71.76 307.6C72.8 305.68 75.04 302.96 76.4 301.52C65.52 297.28 58.72 285.68 55.6 272.88ZM0.63998 333.84L2.31998 340.96C10.32 338.4 21.2 334.96 31.44 331.68L30.48 325.12C19.68 328.48 8.07998 331.92 0.63998 333.84ZM4.07998 305.84V335.12H9.83998V305.84H4.07998ZM10.08 280.32H22.32V292.56H10.08V280.32ZM3.75998 273.76V299.12H28.96V273.76H3.75998ZM14.24 297.76V334H20.48V297.76H14.24ZM17.44 309.12V315.76H29.28V309.12H17.44Z" fill="#898989"/>
<path d="M32.64 374.16V381.28H74.4V374.16H32.64ZM46.32 392.24V399.36H66V392.24H46.32ZM64 392.24V393.6C63.28 415.84 62.16 424.32 60.48 426.16C59.76 427.12 59.04 427.28 57.68 427.28C56.16 427.28 52.56 427.2 48.72 426.88C49.84 428.8 50.72 431.92 50.88 434.08C54.8 434.24 58.72 434.32 60.96 434C63.44 433.68 65.12 433.04 66.64 430.96C69.12 428 70.08 419.2 71.04 395.52C71.12 394.56 71.12 392.24 71.12 392.24H64ZM43.2 378.4C42.72 398.8 42.08 418.8 27.04 429.6C28.72 430.88 30.96 433.2 31.92 434.96C48.24 422.72 49.76 400.96 50.4 378.4H43.2ZM47.76 362.8C49.44 367.04 51.04 372.56 51.52 375.92L58.32 373.84C57.76 370.48 55.92 365.12 54.16 361.04L47.76 362.8ZM4.55998 384.8V390.64H27.28V384.8H4.55998ZM4.55998 395.44V401.28H27.36V395.44H4.55998ZM1.43998 373.92V380.08H30.48V373.92H1.43998ZM7.59998 406.32V412.48H21.2V423.92H7.59998V430.08H27.28V406.32H7.59998ZM4.55998 406.32V433.68H10.48V406.32H4.55998ZM9.51998 363.04C11.44 366.4 13.84 371.12 14.88 374.08L20.48 370.64C19.28 367.76 17.04 363.44 14.88 360.16L9.51998 363.04Z" fill="#898989"/>
</g>
</svg>
