<svg width="78" height="436" viewBox="0 0 78 436" fill="none" xmlns="http://www.w3.org/2000/svg">
<g opacity="0.45">
<path d="M32.84 38.48V64.16C32.84 72.08 35.56 74.08 44.92 74.08C46.92 74.08 59.64 74.08 61.8 74.08C69.64 74.08 71.7201 71.44 72.6801 61.52C70.6801 61.04 67.8 60 66.2001 58.8C65.8001 66.24 65.08 67.52 61.2401 67.52C58.44 67.52 47.64 67.52 45.48 67.52C40.6 67.52 39.8801 66.96 39.8801 64.08V38.48H32.84ZM5.56004 6.64C10.44 8.88 16.44 12.64 19.24 15.44L23.64 9.2C20.68 6.48 14.6 3.04 9.88004 1.04L5.56004 6.64ZM1.48004 28.24C6.36004 30.32 12.36 33.84 15.16 36.48L19.48 30.24C16.52 27.6 10.44 24.32 5.64004 22.48L1.48004 28.24ZM3.56004 69.2L10.28 73.76C14.36 66.16 18.92 56.48 22.52 48L16.52 43.44C12.6 52.72 7.32004 63.04 3.56004 69.2ZM36.2001 38.48V44.24H56.12V51.2H36.2001V57.04H62.92V38.48H36.2001ZM23.96 9.52V16.32H74.04V9.52H23.96ZM20.68 24.24V31.12H76.3601V24.24H20.68ZM34.36 0.559998V28.96H41.72V0.559998H34.36ZM55.32 0.559998V29.12H62.76V0.559998H55.32ZM35.32 28.56C32.04 36 25.56 43.6 19.16 47.6C20.84 48.88 23.24 51.52 24.36 53.28C31.24 48.4 38.04 39.6 41.8 30.72L35.32 28.56ZM61.72 28.32L55.4 30.48C59 39.12 65.48 47.76 72.44 52.32C73.56 50.48 76.04 47.76 77.72 46.4C71.1601 42.8 64.92 35.52 61.72 28.32Z" fill="#898989"/>
<path d="M4.12004 142.56V148.08H41V142.56H4.12004ZM2.12004 104.16V109.84H42.12V104.16H2.12004ZM18.84 97.6V155.84H25.72V97.6H18.84ZM1.88004 155.52L2.84004 162C13.16 160.96 27.64 159.44 41.24 157.84L41.16 152C26.84 153.44 11.72 154.72 1.88004 155.52ZM10.52 128.56H34.36V133.44H10.52V128.56ZM10.52 119.04H34.36V123.84H10.52V119.04ZM4.36004 114.08V138.4H40.68V114.08H4.36004ZM37.4 91.12C28.84 93.04 14.6 94.48 2.68004 95.04C3.40004 96.56 4.12004 98.96 4.44004 100.56C16.44 100.24 31.16 98.96 40.9201 96.88L37.4 91.12ZM41.72 108.96V115.92H70.12V108.96H41.72ZM67.08 108.96V110.64C66.3601 142.4 65.56 153.84 63.64 156.32C62.92 157.36 62.12 157.6 60.84 157.6C59.32 157.6 55.96 157.52 52.28 157.2C53.48 159.28 54.2801 162.4 54.44 164.48C58.2 164.64 61.96 164.64 64.36 164.32C66.84 163.92 68.6 163.2 70.12 160.8C72.76 157.36 73.48 145.92 74.36 112.48C74.36 111.6 74.36 108.96 74.36 108.96H67.08ZM50.5201 91.68C50.44 122.64 51.08 146.72 33.4 159.68C35.16 160.96 37.72 163.52 38.84 165.28C57.6401 150.88 57.72 124.48 57.8 91.68H50.5201Z" fill="#898989"/>
<path d="M39 208.4C33.88 208.4 29.72 212.56 29.72 217.6C29.72 222.72 33.88 226.88 39 226.88C44.04 226.88 48.2 222.72 48.2 217.6C48.2 212.56 44.04 208.4 39 208.4Z" fill="#898989"/>
<path d="M8.12004 276V282.88H19.96V322.72H8.12004V329.52H26.84V276H8.12004ZM8.60004 299.04V305.68H24.2V299.04H8.60004ZM4.60004 276V336.32H11.56V276H4.60004ZM28.76 307.84V315.04H75.16V307.84H28.76ZM49.08 270.56V299.44C49.08 314.4 47 329.28 28.76 339.2C30.36 340.48 32.68 343.2 33.72 344.8C53.72 333.6 56.12 316.56 56.12 299.44V270.56H49.08ZM33.56 283.6V311.36H40.2001V290.64H64.36V311.36H71.2401V283.6H33.56ZM54.04 322.64C59.64 329.44 66.8401 338.96 70.0401 344.64L75.72 339.84C72.36 334.32 64.92 325.2 59.32 318.56L54.04 322.64Z" fill="#898989"/>
<path d="M2.60004 364.64V371.68H30.44V364.64H2.60004ZM3.48004 387.44V394.4H29.64V387.44H3.48004ZM0.920044 415.6L2.92004 422.8C10.92 420.4 21.72 417.28 31.8 414.24L30.84 407.52C19.88 410.64 8.52004 413.76 0.920044 415.6ZM40.9201 382.64H64.84V389.36H40.9201V382.64ZM40.9201 395.28H64.84V402H40.9201V395.28ZM40.9201 370.08H64.84V376.72H40.9201V370.08ZM33.88 363.84V408.4H72.2801V363.84H33.88ZM54.52 405.44V425.36C54.52 432.16 55.96 434.32 62.44 434.32C63.72 434.32 68.2001 434.32 69.5601 434.32C74.8401 434.32 76.6 431.52 77.32 421.2C75.32 420.72 72.36 419.52 70.84 418.4C70.68 426.48 70.3601 427.76 68.6801 427.76C67.7201 427.76 64.44 427.76 63.72 427.76C62.04 427.76 61.72 427.44 61.72 425.28V405.44H54.52ZM40.6 407.12C39.48 417.84 36.68 425.12 21.8 429.04C23.32 430.48 25.24 433.44 26.04 435.28C42.84 430.16 46.68 420.72 48.04 407.12H40.6ZM13.16 367.44V415.68L20.44 414.48V367.44H13.16Z" fill="#898989"/>
</g>
</svg>
