<svg width="674" height="491" viewBox="0 0 674 491" fill="none" xmlns="http://www.w3.org/2000/svg">
<path d="M213.1 296C205.6 296 201.6 287.1 206.7 281.5C220.4 266.5 246.8 245.3 285.8 245.3C346.1 245.3 342.1 270.7 401.7 270.7C461.3 270.7 476.5 213.4 554.6 213.4C612.3 213.4 653.8 258.6 671.4 282.2C675.7 287.9 671.6 296.1 664.4 296.1H213.1V296Z" fill="#E6E4CF"/>
<path d="M520.3 338V476.9H603.7L520.3 338Z" fill="#FAC02D"/>
<path opacity="0.65" d="M589.8 97.2H532.7C502 97.2 477.1 72.3 477.1 41.6H589.8V97.2V97.2Z" fill="#FAC02D"/>
<path d="M126.8 90.9C148.063 90.9 165.3 73.663 165.3 52.4C165.3 31.1371 148.063 13.9 126.8 13.9C105.537 13.9 88.2998 31.1371 88.2998 52.4C88.2998 73.663 105.537 90.9 126.8 90.9Z" fill="#FAC02D"/>
<path d="M534.2 222.2C564.9 222.2 589.8 197.3 589.8 166.6V97.1H534.2V222.2Z" fill="#FAC02D"/>
<path d="M268.7 254.6V365.8H199.3L268.7 254.6Z" fill="#FAC02D"/>
<path d="M179.2 371.3V282.4H95.8999L179.2 371.3Z" fill="#53A0C1"/>
<path d="M330.9 365.8C300.9 365.8 276.5 341.4 276.5 311.4V284.2L330.9 365.8Z" fill="#53A0C1"/>
<path d="M248.7 236.1C218 236.1 193.1 211.2 193.1 180.5V166.6H248.7V236.1Z" fill="#FAC02D"/>
<path opacity="0.65" d="M311.2 348.4C330.364 348.4 345.9 332.864 345.9 313.7C345.9 294.536 330.364 279 311.2 279C292.036 279 276.5 294.536 276.5 313.7C276.5 332.864 292.036 348.4 311.2 348.4Z" fill="#FAC02D"/>
<path opacity="0.65" d="M225.2 449.1C244.364 449.1 259.9 433.564 259.9 414.4C259.9 395.236 244.364 379.7 225.2 379.7C206.036 379.7 190.5 395.236 190.5 414.4C190.5 433.564 206.036 449.1 225.2 449.1Z" fill="#FAC02D"/>
<path opacity="0.65" d="M350.3 490.8L276.5 372.7V443.6L306 490.8H350.3Z" fill="#FAC02D"/>
<path d="M189.4 490.8C233.2 490.8 268.8 455.3 268.8 411.4V372.7L189.4 490.8Z" fill="#53A0C1"/>
<path opacity="0.65" d="M225.2 439.7C239.173 439.7 250.5 428.373 250.5 414.4C250.5 400.427 239.173 389.1 225.2 389.1C211.227 389.1 199.9 400.427 199.9 414.4C199.9 428.373 211.227 439.7 225.2 439.7Z" fill="#FAC02D"/>
<path d="M311.2 439.7C325.173 439.7 336.5 428.373 336.5 414.4C336.5 400.427 325.173 389.1 311.2 389.1C297.227 389.1 285.9 400.427 285.9 414.4C285.9 428.373 297.227 439.7 311.2 439.7Z" fill="#FAC02D"/>
<path opacity="0.65" d="M225.2 339C239.173 339 250.5 327.673 250.5 313.7C250.5 299.727 239.173 288.4 225.2 288.4C211.227 288.4 199.9 299.727 199.9 313.7C199.9 327.673 211.227 339 225.2 339Z" fill="#FAC02D"/>
<path opacity="0.65" d="M562 379.7C585.03 379.7 603.7 361.03 603.7 338C603.7 314.97 585.03 296.3 562 296.3C538.969 296.3 520.3 314.97 520.3 338C520.3 361.03 538.969 379.7 562 379.7Z" fill="#FAC02D"/>
<path opacity="0.65" d="M532.5 367.4C516.2 351.1 516.2 324.7 532.5 308.5C548.8 292.2 575.2 292.2 591.4 308.5" fill="#FAC02D"/>
<path d="M193.1 69.4H304.2C319.5 69.4 332 81.8 332 97.2H220.9C205.6 97.2 193.1 84.8 193.1 69.4Z" fill="#FAC02D"/>
<path opacity="0.65" d="M220.9 55.4999H332C332 40.1999 319.6 27.7 304.2 27.7H193.1C193.1 43.1 205.6 55.4999 220.9 55.4999Z" fill="#FAC02D"/>
<path d="M367.5 75.6H470.2C470.2 56.9 455 41.7 436.3 41.7H401.5C382.7 41.6 367.5 56.8 367.5 75.6Z" fill="#FAC02D"/>
<path d="M437 351.9V476.9H358.8L437 351.9Z" fill="#FAC02D"/>
<path opacity="0.65" d="M436.938 365.824V310.224H367.438V365.824H436.938Z" fill="#FAC02D"/>
<path d="M367.5 310.2H437V351.9H409.2C386.2 351.9 367.5 333.2 367.5 310.2Z" fill="#FAC02D"/>
<path opacity="0.65" d="M248.7 111.1H193.1V166.7H248.7V111.1Z" fill="#FAC02D"/>
<path d="M287.3 111.1H248.7V138.9H287.3V111.1Z" fill="#FAC02D"/>
<path opacity="0.65" d="M287.3 138.9H248.7V166.7H287.3V138.9Z" fill="#FAC02D"/>
<path d="M297.3 194.4H248.7V236.1H297.3V194.4Z" fill="#53A0C1"/>
<path d="M234.8 83.3V138.9H179.2L234.8 83.3Z" fill="#53A0C1"/>
<path d="M287.3 97.2V166.7H342.8L287.3 97.2Z" fill="#53A0C1"/>
<path d="M179.2 138.9V236.1H82L179.2 138.9Z" fill="#53A0C1"/>
<path opacity="0.65" d="M297.3 236.1C316.464 236.1 332 220.564 332 201.4C332 182.236 316.464 166.7 297.3 166.7C278.136 166.7 262.6 182.236 262.6 201.4C262.6 220.564 278.136 236.1 297.3 236.1Z" fill="#FAC02D"/>
<path d="M456.4 0L372.8 37H456.4V0Z" fill="#53A0C1"/>
<path opacity="0.65" d="M126.8 155.1C148.063 155.1 165.3 137.863 165.3 116.6C165.3 95.337 148.063 78.1 126.8 78.1C105.537 78.1 88.2998 95.337 88.2998 116.6C88.2998 137.863 105.537 155.1 126.8 155.1Z" fill="#FAC02D"/>
<path opacity="0.65" d="M470.2 166.7H423.1C392.4 166.7 367.5 191.6 367.5 222.3H470.2V166.7V166.7Z" fill="#FAC02D"/>
<path d="M523.7 0V222.2H461.7L523.7 0Z" fill="#53A0C1"/>
<path d="M179.2 365.8V490.8H95.8999L179.2 365.8Z" fill="#FAC02D"/>
<path opacity="0.65" d="M123.7 400.5C139.053 400.5 151.5 388.054 151.5 372.7C151.5 357.347 139.053 344.9 123.7 344.9C108.346 344.9 95.8999 357.347 95.8999 372.7C95.8999 388.054 108.346 400.5 123.7 400.5Z" fill="#FAC02D"/>
<path d="M450.9 490.8V365.8L506.5 310.2V435.2C506.4 465.9 481.6 490.8 450.9 490.8Z" fill="#53A0C1"/>
<path d="M506.4 302.5L450.8 358.1V310.2C450.8 279.5 475.7 254.7 506.3 254.7V302.5H506.4Z" fill="#FAC02D"/>
<path opacity="0.65" d="M534.2 222.2C549.553 222.2 562 209.753 562 194.4C562 179.046 549.553 166.6 534.2 166.6C518.846 166.6 506.4 179.046 506.4 194.4C506.4 209.753 518.846 222.2 534.2 222.2Z" fill="#FAC02D"/>
<path d="M589.8 41.6V97.2H534.2L589.8 41.6Z" fill="#FAC02D"/>
<path d="M423.1 351.9V454.7H358.8L423.1 351.9Z" fill="#53A0C1"/>
<path d="M247.9 0H220.1V69.5H247.9V0Z" fill="#53A0C1"/>
<path d="M287.3 0C306.5 0 322 15.5 322 34.7C322 53.9 306.5 69.4 287.3 69.4V0Z" fill="#53A0C1"/>
<path opacity="0.65" d="M470.1 80.2H408.3V116.5H470.1V80.2Z" fill="#FAC02D"/>
<path d="M433.8 157.4H408.3V121.1H470.1C470.2 141.1 453.9 157.4 433.8 157.4Z" fill="#53A0C1"/>
<path d="M367.5 116.6V80.3H403.8C403.8 100.1 387.9 116.3 368 116.6H367.5Z" fill="#53A0C1"/>
<path opacity="0.65" d="M403.9 157.4C383.8 157.4 367.6 141.1 367.6 121.1H403.9V157.4Z" fill="#FAC02D"/>
<path d="M402.3 194.4C413.788 194.4 423.1 185.088 423.1 173.6C423.1 162.113 413.788 152.8 402.3 152.8C390.813 152.8 381.5 162.113 381.5 173.6C381.5 185.088 390.813 194.4 402.3 194.4Z" fill="#FAC02D"/>
</svg>
